<svg width="70" height="70" viewBox="0 0 70 70" fill="none" xmlns="http://www.w3.org/2000/svg">
<circle cx="35" cy="35" r="35" fill="#4B8063"/>
<path d="M12.904 35.168C12.408 35.168 11.992 35 11.656 34.664C11.32 34.328 11.152 33.912 11.152 33.416C11.152 32.92 11.32 32.504 11.656 32.168C11.992 31.832 12.408 31.664 12.904 31.664C13.384 31.664 13.792 31.832 14.128 32.168C14.464 32.504 14.632 32.92 14.632 33.416C14.632 33.912 14.464 34.328 14.128 34.664C13.792 35 13.384 35.168 12.904 35.168ZM31.2931 35H28.5571L20.3251 22.544V35H17.5891V18.296H20.3251L28.5571 30.728V18.296H31.2931V35ZM37.6219 20.528V25.424H43.3819V27.656H37.6219V32.768H44.1019V35H34.8859V18.296H44.1019V20.528H37.6219ZM58.2479 18.32V20.552H53.8079V35H51.0719V20.552H46.6079V18.32H58.2479Z" fill="#F5F5F5"/>
<path d="M18.672 46.1C18.672 45.1387 18.882 44.28 19.302 43.524C19.722 42.7587 20.296 42.166 21.024 41.746C21.752 41.3167 22.564 41.102 23.46 41.102C24.552 41.102 25.4853 41.3633 26.26 41.886C27.044 42.3993 27.6133 43.1273 27.968 44.07H26.82C26.54 43.4073 26.1107 42.8893 25.532 42.516C24.9627 42.1427 24.272 41.956 23.46 41.956C22.7413 41.956 22.0927 42.124 21.514 42.46C20.9447 42.796 20.4967 43.2813 20.17 43.916C19.8433 44.5413 19.68 45.2693 19.68 46.1C19.68 46.9307 19.8433 47.6587 20.17 48.284C20.4967 48.9093 20.9447 49.39 21.514 49.726C22.0927 50.062 22.7413 50.23 23.46 50.23C24.272 50.23 24.9627 50.048 25.532 49.684C26.1107 49.3107 26.54 48.7973 26.82 48.144H27.968C27.6133 49.0773 27.044 49.8007 26.26 50.314C25.476 50.8273 24.5427 51.084 23.46 51.084C22.564 51.084 21.752 50.874 21.024 50.454C20.296 50.0247 19.722 49.432 19.302 48.676C18.882 47.92 18.672 47.0613 18.672 46.1ZM33.2668 51.112C32.5481 51.112 31.8994 50.9533 31.3208 50.636C30.7514 50.3093 30.2988 49.852 29.9628 49.264C29.6361 48.6667 29.4728 47.9713 29.4728 47.178C29.4728 46.3847 29.6408 45.694 29.9768 45.106C30.3128 44.5087 30.7701 44.0513 31.3488 43.734C31.9274 43.4073 32.5761 43.244 33.2948 43.244C34.0134 43.244 34.6621 43.4073 35.2408 43.734C35.8288 44.0513 36.2861 44.5087 36.6128 45.106C36.9488 45.694 37.1168 46.3847 37.1168 47.178C37.1168 47.962 36.9488 48.6527 36.6128 49.25C36.2768 49.8473 35.8148 50.3093 35.2268 50.636C34.6388 50.9533 33.9854 51.112 33.2668 51.112ZM33.2668 50.258C33.7708 50.258 34.2374 50.146 34.6668 49.922C35.0961 49.6887 35.4414 49.3433 35.7028 48.886C35.9734 48.4193 36.1088 47.85 36.1088 47.178C36.1088 46.506 35.9781 45.9413 35.7168 45.484C35.4554 45.0173 35.1101 44.672 34.6808 44.448C34.2514 44.2147 33.7848 44.098 33.2808 44.098C32.7768 44.098 32.3101 44.2147 31.8808 44.448C31.4514 44.672 31.1061 45.0173 30.8448 45.484C30.5928 45.9413 30.4668 46.506 30.4668 47.178C30.4668 47.85 30.5928 48.4193 30.8448 48.886C31.1061 49.3433 31.4468 49.6887 31.8668 49.922C32.2961 50.146 32.7628 50.258 33.2668 50.258ZM39.8832 44.714C40.0979 44.238 40.4245 43.8693 40.8632 43.608C41.3112 43.3467 41.8572 43.216 42.5012 43.216V44.238H42.2352C41.5259 44.238 40.9565 44.4293 40.5272 44.812C40.0979 45.1947 39.8832 45.834 39.8832 46.73V51H38.9032V43.356H39.8832V44.714ZM50.8915 46.786C50.8915 47.122 50.8821 47.3787 50.8635 47.556H44.5215C44.5495 48.1347 44.6895 48.6293 44.9415 49.04C45.1935 49.4507 45.5248 49.7633 45.9355 49.978C46.3461 50.1833 46.7941 50.286 47.2795 50.286C47.9141 50.286 48.4461 50.132 48.8755 49.824C49.3141 49.516 49.6035 49.1007 49.7435 48.578H50.7795C50.5928 49.3247 50.1915 49.936 49.5755 50.412C48.9688 50.8787 48.2035 51.112 47.2795 51.112C46.5608 51.112 45.9168 50.9533 45.3475 50.636C44.7781 50.3093 44.3301 49.852 44.0035 49.264C43.6861 48.6667 43.5275 47.9713 43.5275 47.178C43.5275 46.3847 43.6861 45.6893 44.0035 45.092C44.3208 44.4947 44.7641 44.0373 45.3335 43.72C45.9028 43.4027 46.5515 43.244 47.2795 43.244C48.0075 43.244 48.6421 43.4027 49.1835 43.72C49.7341 44.0373 50.1541 44.4667 50.4435 45.008C50.7421 45.54 50.8915 46.1327 50.8915 46.786ZM49.8975 46.758C49.9068 46.1887 49.7901 45.7033 49.5475 45.302C49.3141 44.9007 48.9921 44.5973 48.5815 44.392C48.1708 44.1867 47.7228 44.084 47.2375 44.084C46.5095 44.084 45.8888 44.3173 45.3755 44.784C44.8621 45.2507 44.5775 45.9087 44.5215 46.758H49.8975Z" fill="#F5F5F5"/>
</svg>
