<svg width="70" height="70" viewBox="0 0 70 70" fill="none" xmlns="http://www.w3.org/2000/svg">
<circle cx="35" cy="35" r="35" fill="#4B8063"/>
<path d="M50.1249 29V31.7501H52.8749V29H54.2499V31.7501H57V33.1251H54.2499V35.8749H57V37.2499H54.2499V40H52.8749V37.2499H50.1249V40H48.7498V37.2499H46V35.8749H48.7498V33.1251H46V31.7501H48.7498V29H50.1249ZM52.8749 33.1249H50.1249V35.8749H52.8749V33.1249Z" fill="white"/>
<path d="M36.6809 17.0002C43.2216 17.0002 48.9321 20.516 51.9909 25.742L51.9611 25.6917L44.2653 30.0774C42.7493 27.5366 39.9699 25.8218 36.7812 25.7864L36.6807 25.7859C31.8185 25.7859 27.8766 29.6874 27.8766 34.4999C27.875 36.0167 28.2754 37.5075 29.0378 38.8233C30.5554 41.4455 33.4083 43.2141 36.6809 43.2141C39.9738 43.2141 42.8429 41.4231 44.3526 38.7728L44.316 38.8364L52 43.2423C48.9747 48.4241 43.3424 51.9291 36.8778 51.9989L36.6809 52C30.1195 52 24.3928 48.4624 21.3417 43.2088C19.8522 40.644 19 37.6707 19 34.4999C19 24.8352 26.9157 17 36.6807 17L36.6809 17.0002Z" fill="white"/>
</svg>
