<svg width="70" height="70" viewBox="0 0 70 70" fill="none" xmlns="http://www.w3.org/2000/svg">
<circle cx="35" cy="35" r="35" fill="#4B8063"/>
<path d="M53.9603 19.5835L46.6526 17.0835C46.1659 16.9152 45.625 17.0053 45.2163 17.3178L28.744 29.944L20.4087 24.914C19.982 24.6556 19.4591 24.6195 18.9964 24.8239L15.9195 26.17C15.3606 26.4104 15 26.9633 15 27.5763V42.9609C15 43.5739 15.3606 44.1267 15.9195 44.3671L18.9964 45.7133C19.4531 45.9176 19.982 45.8815 20.4087 45.6231L28.744 40.5931L45.2163 53.2193C45.4868 53.4296 45.8173 53.5378 46.1538 53.5378C46.3221 53.5378 46.4904 53.5077 46.6526 53.4537L53.9603 50.9537C54.5793 50.7433 55 50.1604 55 49.4993V21.0378C55 20.3767 54.5793 19.7938 53.9603 19.5835ZM21.1538 37.9849V32.5522L25.649 35.2686L21.1538 37.9849ZM45.7692 42.5282L35.0601 35.2686L45.7692 28.0089V42.5282Z" fill="#F5F5F5"/>
</svg>
