<?xml version="1.0" encoding="UTF-8"?>
<svg xmlns="http://www.w3.org/2000/svg" xmlns:xlink="http://www.w3.org/1999/xlink" viewBox="0 0 30 30" width="30px" height="30px">
<g id="surface564857">
<path style=" stroke:none;fill-rule:nonzero;fill:rgb(96.078432%,96.078432%,96.078432%);fill-opacity:1;" d="M 27.324219 4.804688 L 22.574219 3.179688 C 22.257812 3.070312 21.90625 3.128906 21.640625 3.332031 L 10.933594 11.539062 L 5.515625 8.269531 C 5.238281 8.101562 4.898438 8.078125 4.597656 8.210938 L 2.597656 9.085938 C 2.234375 9.242188 2 9.601562 2 10 L 2 20 C 2 20.398438 2.234375 20.757812 2.597656 20.914062 L 4.597656 21.789062 C 4.894531 21.921875 5.238281 21.898438 5.515625 21.730469 L 10.933594 18.460938 L 21.640625 26.667969 C 21.816406 26.804688 22.03125 26.875 22.25 26.875 C 22.359375 26.875 22.46875 26.855469 22.574219 26.820312 L 27.324219 25.195312 C 27.726562 25.058594 28 24.679688 28 24.25 L 28 5.75 C 28 5.320312 27.726562 4.941406 27.324219 4.804688 Z M 6 16.765625 L 6 13.234375 L 8.921875 15 Z M 22 19.71875 L 15.039062 15 L 22 10.28125 Z M 22 19.71875 "/>
</g>
</svg>
