<svg width="70" height="70" viewBox="0 0 70 70" fill="none" xmlns="http://www.w3.org/2000/svg">
<circle cx="35" cy="35" r="35" fill="#4B8063"/>
<path d="M22.52 24L20.79 21.08H19.5V24H18.8V17.01H20.9C21.68 17.01 22.27 17.1967 22.67 17.57C23.0767 17.9433 23.28 18.4333 23.28 19.04C23.28 19.5467 23.1333 19.98 22.84 20.34C22.5533 20.6933 22.1267 20.9233 21.56 21.03L23.36 24H22.52ZM19.5 20.51H20.91C21.4567 20.51 21.8667 20.3767 22.14 20.11C22.42 19.8433 22.56 19.4867 22.56 19.04C22.56 18.58 22.4267 18.2267 22.16 17.98C21.8933 17.7267 21.4733 17.6 20.9 17.6H19.5V20.51ZM25.3691 17.58V20.19H28.0191V20.77H25.3691V23.42H28.3191V24H24.6691V17H28.3191V17.58H25.3691ZM31.8184 24.07C31.3584 24.07 30.9518 23.99 30.5984 23.83C30.2518 23.67 29.9784 23.4467 29.7784 23.16C29.5784 22.8733 29.4718 22.5533 29.4584 22.2H30.1984C30.2318 22.54 30.3818 22.84 30.6484 23.1C30.9151 23.3533 31.3051 23.48 31.8184 23.48C32.2918 23.48 32.6651 23.36 32.9384 23.12C33.2184 22.8733 33.3584 22.5633 33.3584 22.19C33.3584 21.89 33.2818 21.65 33.1284 21.47C32.9751 21.2833 32.7851 21.1467 32.5584 21.06C32.3318 20.9667 32.0184 20.8667 31.6184 20.76C31.1518 20.6333 30.7818 20.51 30.5084 20.39C30.2351 20.27 30.0018 20.0833 29.8084 19.83C29.6151 19.5767 29.5184 19.2333 29.5184 18.8C29.5184 18.44 29.6118 18.12 29.7984 17.84C29.9851 17.5533 30.2484 17.33 30.5884 17.17C30.9284 17.01 31.3184 16.93 31.7584 16.93C32.4051 16.93 32.9251 17.09 33.3184 17.41C33.7184 17.7233 33.9484 18.13 34.0084 18.63H33.2484C33.2018 18.3433 33.0451 18.09 32.7784 17.87C32.5118 17.6433 32.1518 17.53 31.6984 17.53C31.2784 17.53 30.9284 17.6433 30.6484 17.87C30.3684 18.09 30.2284 18.3933 30.2284 18.78C30.2284 19.0733 30.3051 19.31 30.4584 19.49C30.6118 19.67 30.8018 19.8067 31.0284 19.9C31.2618 19.9933 31.5751 20.0933 31.9684 20.2C32.4218 20.3267 32.7884 20.4533 33.0684 20.58C33.3484 20.7 33.5851 20.8867 33.7784 21.14C33.9718 21.3933 34.0684 21.7333 34.0684 22.16C34.0684 22.4867 33.9818 22.7967 33.8084 23.09C33.6351 23.3833 33.3784 23.62 33.0384 23.8C32.6984 23.98 32.2918 24.07 31.8184 24.07ZM39.5111 17.01V17.59H37.5711V24H36.8711V17.59H34.9211V17.01H39.5111ZM42.7664 19.13H41.4964V24H40.7964V19.13H40.0364V18.54H40.7964V18.16C40.7964 17.5667 40.9464 17.13 41.2464 16.85C41.5531 16.57 42.0464 16.43 42.7264 16.43V17.03C42.2731 17.03 41.9531 17.1167 41.7664 17.29C41.5864 17.4633 41.4964 17.7533 41.4964 18.16V18.54H42.7664V19.13ZM48.5984 18.54V24H47.8984V23.04C47.7384 23.38 47.4917 23.64 47.1584 23.82C46.825 24 46.4517 24.09 46.0384 24.09C45.385 24.09 44.8517 23.89 44.4384 23.49C44.025 23.0833 43.8184 22.4967 43.8184 21.73V18.54H44.5084V21.65C44.5084 22.2433 44.655 22.6967 44.9484 23.01C45.2484 23.3233 45.655 23.48 46.1684 23.48C46.695 23.48 47.115 23.3133 47.4284 22.98C47.7417 22.6467 47.8984 22.1567 47.8984 21.51V18.54H48.5984ZM50.8965 16.6V24H50.1965V16.6H50.8965Z" fill="#F5F5F5"/>
<path d="M32.85 54.34H29.67L29.06 56H28.32L30.87 49.1H31.66L34.2 56H33.46L32.85 54.34ZM32.64 53.76L31.26 49.98L29.88 53.76H32.64ZM39.7934 51.02C39.7934 51.62 39.5968 52.1033 39.2034 52.47C38.8101 52.8367 38.2201 53.02 37.4334 53.02H36.0234V56H35.3234V49.01H37.4334C38.2134 49.01 38.8001 49.1933 39.1934 49.56C39.5934 49.9267 39.7934 50.4133 39.7934 51.02ZM37.4334 52.42C38.5268 52.42 39.0734 51.9533 39.0734 51.02C39.0734 50.5533 38.9434 50.2 38.6834 49.96C38.4234 49.72 38.0068 49.6 37.4334 49.6H36.0234V52.42H37.4334ZM41.668 49.01V56H40.968V49.01H41.668Z" fill="#F5F5F5"/>
<circle cx="24" cy="37" r="4" fill="#F2F2F2"/>
<circle cx="35" cy="37" r="4" fill="#F2F2F2"/>
<circle cx="46" cy="37" r="4" fill="#F2F2F2"/>
<path d="M8.58 35.94C10.68 35.46 11.73 34.29 11.73 32.43C11.73 31.51 11.62 30.23 11.4 28.59C11.38 28.41 11.32 27.86 11.22 26.94C11.12 26 11.07 25.14 11.07 24.36C11.07 22.92 11.46 21.84 12.24 21.12C13.02 20.38 14.08 20.01 15.42 20.01H16.92V21.84H15.78C14.9 21.84 14.23 22.05 13.77 22.47C13.33 22.89 13.11 23.57 13.11 24.51C13.11 25.21 13.16 26.01 13.26 26.91C13.36 27.79 13.42 28.33 13.44 28.53C13.66 30.21 13.77 31.53 13.77 32.49C13.77 33.59 13.49 34.52 12.93 35.28C12.39 36.02 11.55 36.52 10.41 36.78V36.84C11.55 37.1 12.39 37.61 12.93 38.37C13.49 39.11 13.77 40.03 13.77 41.13C13.77 42.07 13.66 43.38 13.44 45.06C13.42 45.28 13.36 45.84 13.26 46.74C13.16 47.62 13.11 48.41 13.11 49.11C13.11 50.05 13.33 50.73 13.77 51.15C14.23 51.57 14.9 51.78 15.78 51.78H16.92V53.61H15.42C14.08 53.61 13.02 53.24 12.24 52.5C11.46 51.78 11.07 50.7 11.07 49.26C11.07 48.48 11.12 47.63 11.22 46.71C11.32 45.77 11.38 45.2 11.4 45C11.62 43.34 11.73 42.07 11.73 41.19C11.73 39.33 10.68 38.15 8.58 37.65V35.94ZM61.1323 37.65C59.0323 38.15 57.9823 39.33 57.9823 41.19C57.9823 42.07 58.0923 43.34 58.3123 45C58.3323 45.2 58.3923 45.77 58.4923 46.71C58.5923 47.63 58.6423 48.48 58.6423 49.26C58.6423 50.7 58.2523 51.78 57.4723 52.5C56.6923 53.24 55.6323 53.61 54.2923 53.61H52.7923V51.78H53.9323C54.8123 51.78 55.4723 51.57 55.9123 51.15C56.3723 50.73 56.6023 50.05 56.6023 49.11C56.6023 48.41 56.5523 47.62 56.4523 46.74C56.3523 45.84 56.2923 45.28 56.2723 45.06C56.0523 43.38 55.9423 42.07 55.9423 41.13C55.9423 40.03 56.2123 39.11 56.7523 38.37C57.3123 37.61 58.1623 37.1 59.3023 36.84V36.78C58.1623 36.52 57.3123 36.02 56.7523 35.28C56.2123 34.52 55.9423 33.59 55.9423 32.49C55.9423 31.53 56.0523 30.21 56.2723 28.53C56.2923 28.33 56.3523 27.79 56.4523 26.91C56.5523 26.01 56.6023 25.21 56.6023 24.51C56.6023 23.57 56.3723 22.89 55.9123 22.47C55.4723 22.05 54.8123 21.84 53.9323 21.84H52.7923V20.01H54.2923C55.6323 20.01 56.6923 20.38 57.4723 21.12C58.2523 21.84 58.6423 22.92 58.6423 24.36C58.6423 25.14 58.5923 26 58.4923 26.94C58.3923 27.86 58.3323 28.41 58.3123 28.59C58.0923 30.23 57.9823 31.51 57.9823 32.43C57.9823 34.29 59.0323 35.46 61.1323 35.94V37.65Z" fill="#F5F5F5"/>
<path d="M8.58 35.94L8.46859 35.4526L8.08 35.5414V35.94H8.58ZM11.4 28.59L10.9029 28.6452L10.9044 28.6565L11.4 28.59ZM11.22 26.94L10.7228 26.9929L10.7229 26.994L11.22 26.94ZM12.24 21.12L12.5792 21.4874L12.5841 21.4827L12.24 21.12ZM16.92 20.01H17.42V19.51H16.92V20.01ZM16.92 21.84V22.34H17.42V21.84H16.92ZM13.77 22.47L13.4328 22.1007L13.4248 22.1083L13.77 22.47ZM13.26 26.91L12.7631 26.9652L12.7632 26.9665L13.26 26.91ZM13.44 28.53L12.9425 28.5798L12.9432 28.5873L12.9442 28.5949L13.44 28.53ZM12.93 35.28L12.5275 34.9834L12.5261 34.9853L12.93 35.28ZM10.41 36.78L10.2988 36.2925L9.91 36.3812V36.78H10.41ZM10.41 36.84H9.91V37.2388L10.2988 37.3275L10.41 36.84ZM12.93 38.37L12.5224 38.6596L12.5268 38.6657L12.5313 38.6717L12.93 38.37ZM13.44 45.06L12.9442 44.9951L12.9429 45.0049L12.9421 45.0147L13.44 45.06ZM13.26 46.74L13.7568 46.7965L13.7569 46.7952L13.26 46.74ZM13.77 51.15L13.4247 51.5118L13.4329 51.5192L13.77 51.15ZM16.92 51.78H17.42V51.28H16.92V51.78ZM16.92 53.61V54.11H17.42V53.61H16.92ZM12.24 52.5L12.5842 52.1372L12.5791 52.1326L12.24 52.5ZM11.22 46.71L11.7171 46.764L11.7172 46.7629L11.22 46.71ZM11.4 45L10.9043 44.9343L10.9033 44.9423L10.9025 44.9502L11.4 45ZM8.58 37.65H8.08V38.0449L8.46419 38.1364L8.58 37.65ZM8.69141 36.4274C9.80568 36.1727 10.6993 35.7221 11.3146 35.0365C11.9366 34.3434 12.23 33.4594 12.23 32.43H11.23C11.23 33.2606 10.9984 33.8916 10.5704 34.3685C10.1357 34.8529 9.45432 35.2273 8.46859 35.4526L8.69141 36.4274ZM12.23 32.43C12.23 31.4769 12.1166 30.1711 11.8956 28.5235L10.9044 28.6565C11.1234 30.2889 11.23 31.5431 11.23 32.43H12.23ZM11.8969 28.5348C11.877 28.3555 11.8171 27.8063 11.7171 26.886L10.7229 26.994C10.8229 27.9137 10.883 28.4645 10.9031 28.6452L11.8969 28.5348ZM11.7172 26.8871C11.6187 25.9611 11.57 25.1191 11.57 24.36H10.57C10.57 25.1609 10.6213 26.0389 10.7228 26.9929L11.7172 26.8871ZM11.57 24.36C11.57 23.0078 11.9344 22.0826 12.5791 21.4874L11.9009 20.7526C10.9856 21.5974 10.57 22.8322 10.57 24.36H11.57ZM12.5841 21.4827C13.2497 20.8513 14.175 20.51 15.42 20.51V19.51C13.985 19.51 12.7903 19.9087 11.8959 20.7573L12.5841 21.4827ZM15.42 20.51H16.92V19.51H15.42V20.51ZM16.42 20.01V21.84H17.42V20.01H16.42ZM16.92 21.34H15.78V22.34H16.92V21.34ZM15.78 21.34C14.8266 21.34 14.017 21.5674 13.4329 22.1008L14.1071 22.8392C14.443 22.5326 14.9734 22.34 15.78 22.34V21.34ZM13.4248 22.1083C12.8432 22.6635 12.61 23.5066 12.61 24.51H13.61C13.61 23.6334 13.8168 23.1165 14.1152 22.8317L13.4248 22.1083ZM12.61 24.51C12.61 25.2329 12.6616 26.0519 12.7631 26.9652L13.7569 26.8548C13.6584 25.9681 13.61 25.1871 13.61 24.51H12.61ZM12.7632 26.9665C12.8634 27.8479 12.9229 28.3839 12.9425 28.5798L13.9375 28.4802C13.9171 28.2761 13.8566 27.7321 13.7568 26.8535L12.7632 26.9665ZM12.9442 28.5949C13.1632 30.267 13.27 31.5621 13.27 32.49H14.27C14.27 31.4979 14.1568 30.153 13.9358 28.4651L12.9442 28.5949ZM13.27 32.49C13.27 33.5015 13.0141 34.323 12.5275 34.9834L13.3325 35.5766C13.9659 34.717 14.27 33.6785 14.27 32.49H13.27ZM12.5261 34.9853C12.0751 35.6033 11.3546 36.0517 10.2988 36.2925L10.5212 37.2675C11.7454 36.9883 12.7049 36.4367 13.3339 35.5747L12.5261 34.9853ZM9.91 36.78V36.84H10.91V36.78H9.91ZM10.2988 37.3275C11.3506 37.5674 12.0703 38.0233 12.5224 38.6596L13.3376 38.0804C12.7097 37.1967 11.7494 36.6326 10.5212 36.3525L10.2988 37.3275ZM12.5313 38.6717C13.014 39.3096 13.27 40.1181 13.27 41.13H14.27C14.27 39.9419 13.966 38.9104 13.3287 38.0683L12.5313 38.6717ZM13.27 41.13C13.27 42.0376 13.1633 43.3225 12.9442 44.9951L13.9358 45.1249C14.1567 43.4375 14.27 42.1024 14.27 41.13H13.27ZM12.9421 45.0147C12.9226 45.2286 12.8633 45.7828 12.7631 46.6848L13.7569 46.7952C13.8567 45.8972 13.9174 45.3314 13.9379 45.1053L12.9421 45.0147ZM12.7632 46.6835C12.6616 47.5776 12.61 48.387 12.61 49.11H13.61C13.61 48.433 13.6584 47.6624 13.7568 46.7965L12.7632 46.6835ZM12.61 49.11C12.61 50.1134 12.8432 50.9565 13.4248 51.5117L14.1152 50.7883C13.8168 50.5035 13.61 49.9866 13.61 49.11H12.61ZM13.4329 51.5192C14.017 52.0526 14.8266 52.28 15.78 52.28V51.28C14.9734 51.28 14.443 51.0874 14.1071 50.7808L13.4329 51.5192ZM15.78 52.28H16.92V51.28H15.78V52.28ZM16.42 51.78V53.61H17.42V51.78H16.42ZM16.92 53.11H15.42V54.11H16.92V53.11ZM15.42 53.11C14.175 53.11 13.2497 52.7687 12.5841 52.1373L11.8959 52.8627C12.7903 53.7113 13.985 54.11 15.42 54.11V53.11ZM12.5791 52.1326C11.9344 51.5374 11.57 50.6122 11.57 49.26H10.57C10.57 50.7878 10.9856 52.0226 11.9009 52.8674L12.5791 52.1326ZM11.57 49.26C11.57 48.501 11.6187 47.6693 11.7171 46.764L10.7229 46.656C10.6213 47.5907 10.57 48.459 10.57 49.26H11.57ZM11.7172 46.7629C11.8171 45.8236 11.8773 45.2517 11.8975 45.0498L10.9025 44.9502C10.8827 45.1483 10.8229 45.7164 10.7228 46.6571L11.7172 46.7629ZM11.8957 45.0657C12.1165 43.3996 12.23 42.1035 12.23 41.19H11.23C11.23 42.0365 11.1235 43.2804 10.9043 44.9343L11.8957 45.0657ZM12.23 41.19C12.23 40.1605 11.9366 39.275 11.316 38.5776C10.7021 37.8876 9.80979 37.4288 8.69581 37.1636L8.46419 38.1364C9.45021 38.3712 10.1329 38.7524 10.569 39.2424C10.9984 39.725 11.23 40.3595 11.23 41.19H12.23ZM9.08 37.65V35.94H8.08V37.65H9.08ZM61.1323 37.65L61.2481 38.1364L61.6323 38.0449V37.65H61.1323ZM58.3123 45L58.8098 44.9502L58.809 44.9423L58.8079 44.9343L58.3123 45ZM58.4923 46.71L57.9951 46.7629L57.9952 46.764L58.4923 46.71ZM57.4723 52.5L57.1331 52.1326L57.1281 52.1373L57.4723 52.5ZM52.7923 53.61H52.2923V54.11H52.7923V53.61ZM52.7923 51.78V51.28H52.2923V51.78H52.7923ZM55.9123 51.15L55.575 50.7807L55.567 50.7883L55.9123 51.15ZM56.4523 46.74L55.9553 46.7952L55.9555 46.7965L56.4523 46.74ZM56.2723 45.06L56.7702 45.0147L56.7693 45.0049L56.768 44.9951L56.2723 45.06ZM56.7523 38.37L56.3497 38.0734L56.3484 38.0753L56.7523 38.37ZM59.3023 36.84L59.4134 37.3275L59.8023 37.2388V36.84H59.3023ZM59.3023 36.78H59.8023V36.3812L59.4134 36.2925L59.3023 36.78ZM56.7523 35.28L56.3447 35.5696L56.349 35.5757L56.3536 35.5817L56.7523 35.28ZM56.2723 28.53L56.768 28.5949L56.769 28.5873L56.7698 28.5798L56.2723 28.53ZM56.4523 26.91L56.9491 26.9665L56.9492 26.9652L56.4523 26.91ZM55.9123 22.47L55.5669 22.8318L55.5751 22.8392L55.9123 22.47ZM52.7923 21.84H52.2923V22.34H52.7923V21.84ZM52.7923 20.01V19.51H52.2923V20.01H52.7923ZM57.4723 21.12L57.1281 21.4828L57.1331 21.4874L57.4723 21.12ZM58.4923 26.94L58.9893 26.994L58.9895 26.9929L58.4923 26.94ZM58.3123 28.59L58.808 28.6565L58.8092 28.6452L58.3123 28.59ZM61.1323 35.94H61.6323V35.5414L61.2437 35.4526L61.1323 35.94ZM61.0165 37.1636C59.9025 37.4288 59.0102 37.8876 58.3962 38.5776C57.7757 39.275 57.4823 40.1605 57.4823 41.19H58.4823C58.4823 40.3595 58.7139 39.725 59.1433 39.2424C59.5793 38.7524 60.2621 38.3712 61.2481 38.1364L61.0165 37.1636ZM57.4823 41.19C57.4823 42.1035 57.5958 43.3996 57.8166 45.0657L58.8079 44.9343C58.5887 43.2804 58.4823 42.0365 58.4823 41.19H57.4823ZM57.8147 45.0498C57.8349 45.2517 57.8952 45.8236 57.9951 46.7629L58.9895 46.6571C58.8894 45.7164 58.8296 45.1483 58.8098 44.9502L57.8147 45.0498ZM57.9952 46.764C58.0936 47.6693 58.1423 48.501 58.1423 49.26H59.1423C59.1423 48.459 59.0909 47.5907 58.9893 46.656L57.9952 46.764ZM58.1423 49.26C58.1423 50.6122 57.7779 51.5374 57.1331 52.1326L57.8114 52.8674C58.7266 52.0226 59.1423 50.7878 59.1423 49.26H58.1423ZM57.1281 52.1373C56.4625 52.7687 55.5373 53.11 54.2923 53.11V54.11C55.7272 54.11 56.922 53.7113 57.8164 52.8627L57.1281 52.1373ZM54.2923 53.11H52.7923V54.11H54.2923V53.11ZM53.2923 53.61V51.78H52.2923V53.61H53.2923ZM52.7923 52.28H53.9323V51.28H52.7923V52.28ZM53.9323 52.28C54.8837 52.28 55.69 52.0533 56.2575 51.5117L55.567 50.7883C55.2545 51.0867 54.7409 51.28 53.9323 51.28V52.28ZM56.2494 51.5192C56.8563 50.9652 57.1023 50.119 57.1023 49.11H56.1023C56.1023 49.981 55.8883 50.4948 55.5751 50.7808L56.2494 51.5192ZM57.1023 49.11C57.1023 48.387 57.0507 47.5776 56.9491 46.6835L55.9555 46.7965C56.0539 47.6624 56.1023 48.433 56.1023 49.11H57.1023ZM56.9492 46.6848C56.849 45.7828 56.7897 45.2286 56.7702 45.0147L55.7743 45.1053C55.7949 45.3314 55.8555 45.8972 55.9553 46.7952L56.9492 46.6848ZM56.768 44.9951C56.549 43.3225 56.4423 42.0376 56.4423 41.13H55.4423C55.4423 42.1024 55.5555 43.4375 55.7765 45.1249L56.768 44.9951ZM56.4423 41.13C56.4423 40.1141 56.6903 39.3031 57.1562 38.6647L56.3484 38.0753C55.7342 38.9169 55.4423 39.9459 55.4423 41.13H56.4423ZM57.1548 38.6666C57.6279 38.0245 58.3614 37.5674 59.4134 37.3275L59.1911 36.3525C57.9631 36.6326 56.9966 37.1955 56.3497 38.0734L57.1548 38.6666ZM59.8023 36.84V36.78H58.8023V36.84H59.8023ZM59.4134 36.2925C58.3575 36.0517 57.6231 35.6021 57.151 34.9783L56.3536 35.5817C57.0015 36.4379 57.967 36.9883 59.1911 37.2675L59.4134 36.2925ZM57.1599 34.9904C56.6902 34.3294 56.4423 33.5054 56.4423 32.49H55.4423C55.4423 33.6746 55.7343 34.7106 56.3447 35.5696L57.1599 34.9904ZM56.4423 32.49C56.4423 31.5621 56.5491 30.267 56.768 28.5949L55.7765 28.4651C55.5555 30.153 55.4423 31.4979 55.4423 32.49H56.4423ZM56.7698 28.5798C56.7894 28.3839 56.8489 27.8479 56.9491 26.9665L55.9555 26.8535C55.8556 27.7321 55.7952 28.2761 55.7747 28.4802L56.7698 28.5798ZM56.9492 26.9652C57.0507 26.0519 57.1023 25.2329 57.1023 24.51H56.1023C56.1023 25.1871 56.0538 25.9681 55.9553 26.8548L56.9492 26.9652ZM57.1023 24.51C57.1023 23.501 56.8563 22.6548 56.2494 22.1008L55.5751 22.8392C55.8883 23.1252 56.1023 23.639 56.1023 24.51H57.1023ZM56.2575 22.1083C55.69 21.5667 54.8837 21.34 53.9323 21.34V22.34C54.7409 22.34 55.2545 22.5333 55.567 22.8317L56.2575 22.1083ZM53.9323 21.34H52.7923V22.34H53.9323V21.34ZM53.2923 21.84V20.01H52.2923V21.84H53.2923ZM52.7923 20.51H54.2923V19.51H52.7923V20.51ZM54.2923 20.51C55.5373 20.51 56.4625 20.8513 57.1281 21.4827L57.8164 20.7573C56.922 19.9087 55.7272 19.51 54.2923 19.51V20.51ZM57.1331 21.4874C57.7779 22.0826 58.1423 23.0078 58.1423 24.36H59.1423C59.1423 22.8322 58.7266 21.5974 57.8114 20.7526L57.1331 21.4874ZM58.1423 24.36C58.1423 25.1191 58.0936 25.9611 57.9951 26.8871L58.9895 26.9929C59.091 26.0389 59.1423 25.1609 59.1423 24.36H58.1423ZM57.9952 26.886C57.8952 27.8063 57.8352 28.3555 57.8153 28.5348L58.8092 28.6452C58.8293 28.4645 58.8894 27.9137 58.9893 26.994L57.9952 26.886ZM57.8167 28.5235C57.5957 30.1711 57.4823 31.4769 57.4823 32.43H58.4823C58.4823 31.5431 58.5888 30.2889 58.8078 28.6565L57.8167 28.5235ZM57.4823 32.43C57.4823 33.4594 57.7756 34.3434 58.3976 35.0365C59.0129 35.7221 59.9066 36.1727 61.0209 36.4274L61.2437 35.4526C60.2579 35.2273 59.5766 34.8529 59.1419 34.3685C58.7139 33.8916 58.4823 33.2606 58.4823 32.43H57.4823ZM60.6323 35.94V37.65H61.6323V35.94H60.6323Z" fill="#F5F5F5"/>
</svg>
